<?xml version="1.0" encoding="utf-8"?>
<!-- Generator: Adobe Illustrator 27.5.0, SVG Export Plug-In . SVG Version: 6.00 Build 0)  -->
<svg version="1.1" id="Calque_1" xmlns="http://www.w3.org/2000/svg" xmlns:xlink="http://www.w3.org/1999/xlink" x="0px" y="0px"
	 viewBox="0 0 333 207.9" style="enable-background:new 0 0 333 207.9;" xml:space="preserve">
<style type="text/css">
	.st0{fill:#F28A19;}
</style>
<g>
	<path class="st0" d="M39.3,142.9c-14.1-8.2-23.4-35.6-11-51.6c7.2-9.3,59.1-7.7,66.2-7.7c-3.9-3.8-9.7-5.5-7.1-7.1
		c4.6-2.9,38.4-16.8,60-16.5c33.1,0.5,54.3,10.4,59.5,13.7c1.8,1.1-15.8,2.7-18.5,2.7c-0.4,2.2-0.9,3.3-1.3,6.6
		c6.2,0,41.5-3.7,45.9-2.7c15.4,3.3,56,6,66.6,20.3c10.1,13.7,12.4,23,12.8,35.1c-3.5,2.2-11.5,4.9-14.6,7.1
		c3.1,1.6,16.3,0.6,20.8-0.5c1.3-7.7-0.5-24.5-2.2-30.7c-8.4-30.2-33.9-31.8-43.7-34c-9.7-2.2-50.4-8.9-60.9-14.8
		c-22.5-12.6-47.3-18.3-81.7-14.3c-27.8,3.4-50.3,13.2-55.6,15.4c-5.3,2.2-18.5,7.2-22,7.2c-4.7,0-13.7-6-17.6-7.7
		c-3.5,0-15,0.5-19.4,1.1c4.8,3.3,5.7,3.8,8.4,6V82c-3.5,0-7.5,1.1-7.5,3.3c0,3.3,1.8,6.2,0,6.6c-4.8,1.1-6.6,25.2-3.1,35.1
		C16.7,136.4,26.1,143.8,39.3,142.9"/>
	<path class="st0" d="M66.6,105.6c2.7,4.9,9.7,17.5,11.9,21.9c-3.1,6-8.4,15.4-12.4,21.9c-3.1,0-13.3,0.3-21.6,0
		c5.7,8.5,16.9,12.6,27.4,9.9c9.3-2.4,18.1-14.3,18.5-26.9c5.7-2.2,57.8-20.3,72.8-22.5c16.9-2.5,49.4-11.5,95.7-10.4
		c-3.9,2.2-11.5,10.4-12.4,21.9c-5.3,0.5-91.3,4.9-107.2,6.6c16.7,2.2,99.3,5.5,106.8,5.5c0.9,12.1,12.4,25.8,20.8,26.9
		c8.9,1.2,18.1-0.6,24.1-10.4h-21.5c-1.3-2.7-8.4-16.5-11.5-21.9c0.4-2.7,10.6-20.3,11.9-23c3.9,0,12,0.5,20.4,0.5
		c-2.7-6.6-12.4-13.5-45.5-15.4c-9.3-0.5-64,4.4-83.3,9.3c-17.5,4.5-51.6,13.2-71.4,20.8c0-3.8-4.8-18.6-17.2-23.6
		c-10.5-4.2-22.5-1.3-26.9,8.8L66.6,105.6L66.6,105.6z"/>
</g>
</svg>
